<svg width="327" height="218" xmlns="http://www.w3.org/2000/svg" xmlns:xlink="http://www.w3.org/1999/xlink" xml:space="preserve" overflow="hidden"><g><path d="M5.45 25.615 321.55 25.615 321.55 187.48 5.45 187.48Z" fill="#FFFFFF"/><path d="M5.45 25.615 321.55 25.615 321.55 187.48 5.45 187.48Z" stroke="#026FC1" stroke-width="1.09" fill="none"/><path d="M163.486 48.7775C168.989 48.7764 174.469 49.4667 179.798 50.832L163.5 114.45 163.5 114.45Z" stroke="#FFFFFF" stroke-width="0.545" stroke-linejoin="round" fill="#53C82F"/><path d="M179.862 50.8484C208.861 58.3087 229.143 84.4407 229.173 114.385L163.5 114.45 163.5 114.45Z" stroke="#FFFFFF" stroke-width="0.545" stroke-linejoin="round" fill="#E42929"/><path d="M229.173 114.45C229.173 147.509 204.598 175.415 171.805 179.595L163.5 114.45 163.5 114.45Z" stroke="#FFFFFF" stroke-width="0.545" stroke-linejoin="round" fill="#EFF136"/><path d="M171.739 179.604C137.369 183.95 105.533 160.85 99.0042 126.826L163.5 114.45 163.5 114.45Z" stroke="#FFFFFF" stroke-width="0.545" stroke-linejoin="round" fill="#24CBE5"/><path d="M98.9922 126.762C92.1922 91.1354 115.561 56.7417 151.188 49.9419 155.216 49.1731 159.308 48.7833 163.409 48.7776L163.5 114.45 163.5 114.45Z" stroke="#FFFFFF" stroke-width="0.545" stroke-linejoin="round" fill="#D67B17"/><text font-family="Arial,Arial_MSFontService,sans-serif" font-weight="400" font-size="20" transform="matrix(0.545 0 0 0.545 103.823 14)">Arrests rate per Borough</text><path d="M176.505 32.8018C173.78 32.8018 173.234 37.1274 172.482 43.0751L171.731 49.0229" stroke="#53C82F" stroke-width="0.545" fill="none"/><path d="M231.035 63.9053C228.31 63.9053 224.865 66.5776 220.128 70.252L215.392 73.9264" stroke="#E42929" stroke-width="0.545" fill="none"/><path d="M227.751 168.42C225.026 168.42 221.756 165.537 217.259 161.572L212.761 157.607" stroke="#EFF136" stroke-width="0.545" fill="none"/><path d="M112.563 180.535C115.288 180.535 117.851 177.008 121.375 172.158L124.899 167.308" stroke="#24CBE5" stroke-width="0.545" fill="none"/><path d="M97.5757 61.8944C100.301 61.8944 103.66 64.6736 108.28 68.4949L112.898 72.3163" stroke="#D67B17" stroke-width="0.545" fill="none"/><text font-family="Arial,Arial_MSFontService,sans-serif" font-weight="700" font-size="14" transform="matrix(0.545 0 0 0.545 182.03 38)">Staten Island</text><text font-family="Arial,Arial_MSFontService,sans-serif" font-weight="700" font-size="14" transform="matrix(0.545 0 0 0.545 231.625 38)">: </text><text font-family="Arial,Arial_MSFontService,sans-serif" font-weight="700" font-size="14" transform="matrix(0.545 0 0 0.545 235.985 38)">4 </text><text font-family="Arial,Arial_MSFontService,sans-serif" font-weight="700" font-size="14" transform="matrix(0.545 0 0 0.545 242.525 38)">%</text><text font-family="Arial,Arial_MSFontService,sans-serif" font-weight="700" font-size="14" transform="matrix(0.545 0 0 0.545 236.53 69)">Queens</text><text font-family="Arial,Arial_MSFontService,sans-serif" font-weight="700" font-size="14" transform="matrix(0.545 0 0 0.545 266.505 69)">: </text><text font-family="Arial,Arial_MSFontService,sans-serif" font-weight="700" font-size="14" transform="matrix(0.545 0 0 0.545 270.865 69)">21 </text><text font-family="Arial,Arial_MSFontService,sans-serif" font-weight="700" font-size="14" transform="matrix(0.545 0 0 0.545 281.765 69)">%</text><text font-family="Arial,Arial_MSFontService,sans-serif" font-weight="700" font-size="14" transform="matrix(0.545 0 0 0.545 233.26 173)">Manhatan</text><text font-family="Arial,Arial_MSFontService,sans-serif" font-weight="700" font-size="14" transform="matrix(0.545 0 0 0.545 270.865 173)">: </text><text font-family="Arial,Arial_MSFontService,sans-serif" font-weight="700" font-size="14" transform="matrix(0.545 0 0 0.545 275.225 173)">23 </text><text font-family="Arial,Arial_MSFontService,sans-serif" font-weight="700" font-size="14" transform="matrix(0.545 0 0 0.545 286.125 173)">%</text><text font-family="Arial,Arial_MSFontService,sans-serif" font-weight="700" font-size="14" transform="matrix(0.545 0 0 0.545 63.22 185)">Bronx</text><text font-family="Arial,Arial_MSFontService,sans-serif" font-weight="700" font-size="14" transform="matrix(0.545 0 0 0.545 86.11 185)">: </text><text font-family="Arial,Arial_MSFontService,sans-serif" font-weight="700" font-size="14" transform="matrix(0.545 0 0 0.545 90.47 185)">24 </text><text font-family="Arial,Arial_MSFontService,sans-serif" font-weight="700" font-size="14" transform="matrix(0.545 0 0 0.545 101.37 185)">%</text><text font-family="Arial,Arial_MSFontService,sans-serif" font-weight="700" font-size="14" transform="matrix(0.545 0 0 0.545 37.06 67)">Brooklyn</text><text font-family="Arial,Arial_MSFontService,sans-serif" font-weight="700" font-size="14" transform="matrix(0.545 0 0 0.545 70.85 67)">: </text><text font-family="Arial,Arial_MSFontService,sans-serif" font-weight="700" font-size="14" transform="matrix(0.545 0 0 0.545 75.21 67)">28 </text><text font-family="Arial,Arial_MSFontService,sans-serif" font-weight="700" font-size="14" transform="matrix(0.545 0 0 0.545 86.11 67)">%</text><text fill="#333333" font-family="Lucida Sans Unicode,Lucida Sans Unicode_MSFontService,sans-serif" font-weight="400" font-size="12" transform="matrix(0.545 0 0 0.545 53.41 204)">Staten Island</text><path d="M41.965 197.835 50.685 197.835 50.685 204.375 41.965 204.375Z" fill="#53C82F"/><text fill="#333333" font-family="Lucida Sans Unicode,Lucida Sans Unicode_MSFontService,sans-serif" font-weight="400" font-size="12" transform="matrix(0.545 0 0 0.545 116.453 204)">Queens</text><path d="M105.008 197.835 113.728 197.835 113.728 204.375 105.008 204.375Z" fill="#E42929"/><text fill="#333333" font-family="Lucida Sans Unicode,Lucida Sans Unicode_MSFontService,sans-serif" font-weight="400" font-size="12" transform="matrix(0.545 0 0 0.545 162.621 204)">Manhatan</text><path d="M151.176 197.835 159.896 197.835 159.896 204.375 151.176 204.375Z" fill="#EFF136"/><text fill="#333333" font-family="Lucida Sans Unicode,Lucida Sans Unicode_MSFontService,sans-serif" font-weight="400" font-size="12" transform="matrix(0.545 0 0 0.545 216.059 204)">Bronx</text><path d="M204.614 197.835 213.334 197.835 213.334 204.375 204.614 204.375Z" fill="#24CBE5"/><text fill="#333333" font-family="Lucida Sans Unicode,Lucida Sans Unicode_MSFontService,sans-serif" font-weight="400" font-size="12" transform="matrix(0.545 0 0 0.545 256.934 204)">Brooklyn</text><path d="M245.489 197.835 254.209 197.835 254.209 204.375 245.489 204.375Z" fill="#D67B17"/><text fill="#909090" font-family="Lucida Sans Unicode,Lucida Sans Unicode_MSFontService,sans-serif" font-weight="400" font-size="9" transform="matrix(0.545 0 0 0.545 280.13 215)">meta</text><text fill="#909090" font-family="Lucida Sans Unicode,Lucida Sans Unicode_MSFontService,sans-serif" font-weight="400" font-size="9" transform="matrix(0.545 0 0 0.545 292.665 215)">-</text><text fill="#909090" font-family="Lucida Sans Unicode,Lucida Sans Unicode_MSFontService,sans-serif" font-weight="400" font-size="9" transform="matrix(0.545 0 0 0.545 295.39 215)">chart</text><text fill="#909090" font-family="Lucida Sans Unicode,Lucida Sans Unicode_MSFontService,sans-serif" font-weight="400" font-size="9" transform="matrix(0.545 0 0 0.545 309.015 215)">.</text><text fill="#909090" font-family="Lucida Sans Unicode,Lucida Sans Unicode_MSFontService,sans-serif" font-weight="400" font-size="9" transform="matrix(0.545 0 0 0.545 310.65 215)">com</text></g></svg>